bicep_curl
version=1
nRows=478
nColumns=3
inDegrees=yes

# SIMM Motion File Header:
name bicep_curl
datacolumns 3
datarows 478
otherdata 1
range 0.0000 0.4770
endheader
time	/jointset/r_shoulder/r_shoulder_elev/value	/jointset/r_elbow/r_elbow_flex/value
0.0000	0.0000	112.1400
0.0010	0.0000	112.1139
0.0020	0.0000	112.0879
0.0030	0.0000	112.0618
0.0040	0.0000	112.0357
0.0050	0.0000	112.0097
0.0060	0.0000	111.9836
0.0070	0.0000	111.9575
0.0080	0.0000	111.9315
0.0090	0.0000	111.9054
0.0100	0.0000	111.8793
0.0110	0.0000	111.8533
0.0120	0.0000	111.8272
0.0130	0.0000	111.8011
0.0140	0.0000	111.7751
0.0150	0.0000	111.7490
0.0160	0.0000	111.7229
0.0170	0.0000	111.6969
0.0180	0.0000	111.6708
0.0190	0.0000	111.6447
0.0200	0.0000	111.6187
0.0210	0.0000	111.5926
0.0220	0.0000	111.5665
0.0230	0.0000	111.5405
0.0240	0.0000	111.5144
0.0250	0.0000	111.4883
0.0260	0.0000	111.4623
0.0270	0.0000	111.4362
0.0280	0.0000	111.4102
0.0290	0.0000	111.3841
0.0300	0.0000	111.3580
0.0310	0.0000	111.3320
0.0320	0.0000	111.3059
0.0330	0.0000	111.2798
0.0340	0.0000	111.2538
0.0350	0.0000	111.2277
0.0360	0.0000	111.2016
0.0370	0.0000	111.1756
0.0380	0.0000	111.1495
0.0390	0.0000	111.1234
0.0400	0.0000	111.0974
0.0410	0.0000	111.0713
0.0420	0.0000	111.0452
0.0430	0.0000	111.0192
0.0440	0.0000	110.9931
0.0450	0.0000	110.9670
0.0460	0.0000	110.9410
0.0470	0.0000	110.9149
0.0480	0.0000	110.8888
0.0490	0.0000	110.8628
0.0500	0.0000	110.8367
0.0510	0.0000	110.8106
0.0520	0.0000	110.7846
0.0530	0.0000	110.7585
0.0540	0.0000	110.7324
0.0550	0.0000	110.7064
0.0560	0.0000	110.6803
0.0570	0.0000	110.6542
0.0580	0.0000	110.6282
0.0590	0.0000	110.6021
0.0600	0.0000	110.5760
0.0610	0.0000	110.5500
0.0620	0.0000	110.5239
0.0630	0.0000	110.4978
0.0640	0.0000	110.4718
0.0650	0.0000	110.4457
0.0660	0.0000	110.4196
0.0670	0.0000	110.3936
0.0680	0.0000	110.3675
0.0690	0.0000	110.3414
0.0700	0.0000	110.3154
0.0710	0.0000	110.2893
0.0720	0.0000	110.2632
0.0730	0.0000	110.2372
0.0740	0.0000	110.2111
0.0750	0.0000	110.1850
0.0760	0.0000	110.1590
0.0770	0.0000	110.1329
0.0780	0.0000	110.1068
0.0790	0.0000	110.0808
0.0800	0.0000	110.0547
0.0810	0.0000	110.0286
0.0820	0.0000	110.0026
0.0830	0.0000	109.9765
0.0840	0.0000	109.9505
0.0850	0.0000	109.9244
0.0860	0.0000	109.8983
0.0870	0.0000	109.8723
0.0880	0.0000	109.8462
0.0890	0.0000	109.8201
0.0900	0.0000	109.7941
0.0910	0.0000	109.7680
0.0920	0.0000	109.7419
0.0930	0.0000	109.7159
0.0940	0.0000	109.6898
0.0950	0.0000	109.6637
0.0960	0.0000	109.6377
0.0970	0.0000	109.6116
0.0980	0.0000	109.5855
0.0990	0.0000	109.5595
0.1000	0.0000	109.5334
0.1010	0.0000	109.5073
0.1020	0.0000	109.4813
0.1030	0.0000	109.4552
0.1040	0.0000	109.4291
0.1050	0.0000	109.4031
0.1060	0.0000	109.3770
0.1070	0.0000	109.3509
0.1080	0.0000	109.3249
0.1090	0.0000	109.2988
0.1100	0.0000	109.2727
0.1110	0.0000	109.2467
0.1120	0.0000	109.2206
0.1130	0.0000	109.1945
0.1140	0.0000	109.1685
0.1150	0.0000	109.1424
0.1160	0.0000	109.1163
0.1170	0.0000	109.0903
0.1180	0.0000	109.0642
0.1190	0.0000	109.0381
0.1200	0.0000	109.0121
0.1210	0.0000	108.9860
0.1220	0.0000	108.9599
0.1230	0.0000	108.9339
0.1240	0.0000	108.9078
0.1250	0.0000	108.8817
0.1260	0.0000	108.8557
0.1270	0.0000	108.8296
0.1280	0.0000	108.8035
0.1290	0.0000	108.7775
0.1300	0.0000	108.7514
0.1310	0.0000	108.7253
0.1320	0.0000	108.6993
0.1330	0.0000	108.6732
0.1340	0.0000	108.6471
0.1350	0.0000	108.6211
0.1360	0.0000	108.5950
0.1370	0.0000	108.5689
0.1380	0.0000	108.5429
0.1390	0.0000	108.5168
0.1400	0.0000	108.4908
0.1410	0.0000	108.4647
0.1420	0.0000	108.4386
0.1430	0.0000	108.4126
0.1440	0.0000	108.3865
0.1450	0.0000	108.3604
0.1460	0.0000	108.3344
0.1470	0.0000	108.3083
0.1480	0.0000	108.2822
0.1490	0.0000	108.2562
0.1500	0.0000	108.2301
0.1510	0.0000	108.2040
0.1520	0.0000	108.1780
0.1530	0.0000	108.1519
0.1540	0.0000	108.1258
0.1550	0.0000	108.0998
0.1560	0.0000	108.0737
0.1570	0.0000	108.0476
0.1580	0.0000	108.0216
0.1590	0.0000	107.9955
0.1600	0.0000	107.9694
0.1610	0.0000	107.9434
0.1620	0.0000	107.9173
0.1630	0.0000	107.8912
0.1640	0.0000	107.8652
0.1650	0.0000	107.8391
0.1660	0.0000	107.8130
0.1670	0.0000	107.7870
0.1680	0.0000	107.7609
0.1690	0.0000	107.7348
0.1700	0.0000	107.7088
0.1710	0.0000	107.6827
0.1720	0.0000	107.6566
0.1730	0.0000	107.6306
0.1740	0.0000	107.6045
0.1750	0.0000	107.5784
0.1760	0.0000	107.5524
0.1770	0.0000	107.5263
0.1780	0.0000	107.5002
0.1790	0.0000	107.4742
0.1800	0.0000	107.4481
0.1810	0.0000	107.4220
0.1820	0.0000	107.3960
0.1830	0.0000	107.3699
0.1840	0.0000	107.3438
0.1850	0.0000	107.3178
0.1860	0.0000	107.2917
0.1870	0.0000	107.2656
0.1880	0.0000	107.2396
0.1890	0.0000	107.2135
0.1900	0.0000	107.1874
0.1910	0.0000	107.1614
0.1920	0.0000	107.1353
0.1930	0.0000	107.1092
0.1940	0.0000	107.0832
0.1950	0.0000	107.0571
0.1960	0.0000	107.0311
0.1970	0.0000	107.0050
0.1980	0.0000	106.9789
0.1990	0.0000	106.9529
0.2000	0.0000	106.9268
0.2010	0.0000	106.9007
0.2020	0.0000	106.8747
0.2030	0.0000	106.8486
0.2040	0.0000	106.8225
0.2050	0.0000	106.7965
0.2060	0.0000	106.7704
0.2070	0.0000	106.7443
0.2080	0.0000	106.7183
0.2090	0.0000	106.6922
0.2100	0.0000	106.6661
0.2110	0.0000	106.6401
0.2120	0.0000	106.6140
0.2130	0.0000	106.5879
0.2140	0.0000	106.5619
0.2150	0.0000	106.5358
0.2160	0.0000	106.5097
0.2170	0.0000	106.4837
0.2180	0.0000	106.4576
0.2190	0.0000	106.4315
0.2200	0.0000	106.4055
0.2210	0.0000	106.3794
0.2220	0.0000	106.3533
0.2230	0.0000	106.3273
0.2240	0.0000	106.3012
0.2250	0.0000	106.2751
0.2260	0.0000	106.2491
0.2270	0.0000	106.2230
0.2280	0.0000	106.1969
0.2290	0.0000	106.1709
0.2300	0.0000	106.1448
0.2310	0.0000	106.1187
0.2320	0.0000	106.0927
0.2330	0.0000	106.0666
0.2340	0.0000	106.0405
0.2350	0.0000	106.0145
0.2360	0.0000	105.9884
0.2370	0.0000	105.9623
0.2380	0.0000	105.9363
0.2390	0.0000	105.9102
0.2400	0.0000	105.8841
0.2410	0.0000	105.8581
0.2420	0.0000	105.8320
0.2430	0.0000	105.8059
0.2440	0.0000	105.7799
0.2450	0.0000	105.7538
0.2460	0.0000	105.7277
0.2470	0.0000	105.7017
0.2480	0.0000	105.6756
0.2490	0.0000	105.6495
0.2500	0.0000	105.6235
0.2510	0.0000	105.5974
0.2520	0.0000	105.5714
0.2530	0.0000	105.5453
0.2540	0.0000	105.5192
0.2550	0.0000	105.4932
0.2560	0.0000	105.4671
0.2570	0.0000	105.4410
0.2580	0.0000	105.4150
0.2590	0.0000	105.3889
0.2600	0.0000	105.3628
0.2610	0.0000	105.3368
0.2620	0.0000	105.3107
0.2630	0.0000	105.2846
0.2640	0.0000	105.2586
0.2650	0.0000	105.2325
0.2660	0.0000	105.2064
0.2670	0.0000	105.1804
0.2680	0.0000	105.1543
0.2690	0.0000	105.1282
0.2700	0.0000	105.1022
0.2710	0.0000	105.0761
0.2720	0.0000	105.0500
0.2730	0.0000	105.0240
0.2740	0.0000	104.9979
0.2750	0.0000	104.9718
0.2760	0.0000	104.9458
0.2770	0.0000	104.9197
0.2780	0.0000	104.8936
0.2790	0.0000	104.8676
0.2800	0.0000	104.8415
0.2810	0.0000	104.8154
0.2820	0.0000	104.7894
0.2830	0.0000	104.7633
0.2840	0.0000	104.7372
0.2850	0.0000	104.7112
0.2860	0.0000	104.6851
0.2870	0.0000	104.6590
0.2880	0.0000	104.6330
0.2890	0.0000	104.6069
0.2900	0.0000	104.5808
0.2910	0.0000	104.5548
0.2920	0.0000	104.5287
0.2930	0.0000	104.5026
0.2940	0.0000	104.4766
0.2950	0.0000	104.4505
0.2960	0.0000	104.4244
0.2970	0.0000	104.3984
0.2980	0.0000	104.3723
0.2990	0.0000	104.3462
0.3000	0.0000	104.3202
0.3010	0.0000	104.2941
0.3020	0.0000	104.2680
0.3030	0.0000	104.2420
0.3040	0.0000	104.2159
0.3050	0.0000	104.1898
0.3060	0.0000	104.1638
0.3070	0.0000	104.1377
0.3080	0.0000	104.1117
0.3090	0.0000	104.0856
0.3100	0.0000	104.0595
0.3110	0.0000	104.0335
0.3120	0.0000	104.0074
0.3130	0.0000	103.9813
0.3140	0.0000	103.9553
0.3150	0.0000	103.9292
0.3160	0.0000	103.9031
0.3170	0.0000	103.8771
0.3180	0.0000	103.8510
0.3190	0.0000	103.8249
0.3200	0.0000	103.7989
0.3210	0.0000	103.7728
0.3220	0.0000	103.7467
0.3230	0.0000	103.7207
0.3240	0.0000	103.6946
0.3250	0.0000	103.6685
0.3260	0.0000	103.6425
0.3270	0.0000	103.6164
0.3280	0.0000	103.5903
0.3290	0.0000	103.5643
0.3300	0.0000	103.5382
0.3310	0.0000	103.5121
0.3320	0.0000	103.4861
0.3330	0.0000	103.4600
0.3340	0.0000	103.4600
0.3350	0.0000	103.4600
0.3360	0.0000	103.4600
0.3370	0.0000	103.4600
0.3380	0.0000	103.4600
0.3390	0.0000	103.4600
0.3400	0.0000	103.4600
0.3410	0.0000	103.4600
0.3420	0.0000	103.4600
0.3430	0.0000	103.4600
0.3440	0.0000	103.4600
0.3450	0.0000	103.4600
0.3460	0.0000	103.4600
0.3470	0.0000	103.4600
0.3480	0.0000	103.4600
0.3490	0.0000	103.4600
0.3500	0.0000	103.4600
0.3510	0.0000	103.4600
0.3520	0.0000	103.4600
0.3530	0.0000	103.4600
0.3540	0.0000	103.4600
0.3550	0.0000	103.4600
0.3560	0.0000	103.4600
0.3570	0.0000	103.4600
0.3580	0.0000	103.4600
0.3590	0.0000	103.4600
0.3600	0.0000	103.4600
0.3610	0.0000	103.4600
0.3620	0.0000	103.4600
0.3630	0.0000	103.4600
0.3640	0.0000	103.4600
0.3650	0.0000	103.4600
0.3660	0.0000	103.4600
0.3670	0.0000	103.4600
0.3680	0.0000	103.4600
0.3690	0.0000	103.4600
0.3700	0.0000	103.4600
0.3710	0.0000	103.4600
0.3720	0.0000	103.4600
0.3730	0.0000	103.4600
0.3740	0.0000	103.4600
0.3750	0.0000	103.4600
0.3760	0.0000	103.4600
0.3770	0.0000	103.4600
0.3780	0.0000	103.4600
0.3790	0.0000	103.4600
0.3800	0.0000	103.4600
0.3810	0.0000	103.4600
0.3820	0.0000	103.4600
0.3830	0.0000	103.4600
0.3840	0.0000	103.4600
0.3850	0.0000	103.4600
0.3860	0.0000	103.4600
0.3870	0.0000	103.4600
0.3880	0.0000	103.4600
0.3890	0.0000	103.4600
0.3900	0.0000	103.4600
0.3910	0.0000	103.4600
0.3920	0.0000	103.4600
0.3930	0.0000	103.4600
0.3940	0.0000	103.4600
0.3950	0.0000	103.4600
0.3960	0.0000	103.4600
0.3970	0.0000	103.4600
0.3980	0.0000	103.4600
0.3990	0.0000	103.4600
0.4000	0.0000	103.4600
0.4010	0.0000	103.4600
0.4020	0.0000	103.4600
0.4030	0.0000	103.4600
0.4040	0.0000	103.4600
0.4050	0.0000	103.4600
0.4060	0.0000	103.4600
0.4070	0.0000	103.4600
0.4080	0.0000	103.4600
0.4090	0.0000	103.4600
0.4100	0.0000	103.4600
0.4110	0.0000	103.4600
0.4120	0.0000	103.4600
0.4130	0.0000	103.4600
0.4140	0.0000	103.4600
0.4150	0.0000	103.4600
0.4160	0.0000	103.4600
0.4170	0.0000	103.4600
0.4180	0.0000	103.4600
0.4190	0.0000	103.4600
0.4200	0.0000	103.4600
0.4210	0.0000	103.4600
0.4220	0.0000	103.4600
0.4230	0.0000	103.4600
0.4240	0.0000	103.4600
0.4250	0.0000	103.4600
0.4260	0.0000	103.4600
0.4270	0.0000	103.4600
0.4280	0.0000	103.4600
0.4290	0.0000	103.4600
0.4300	0.0000	103.4600
0.4310	0.0000	103.4600
0.4320	0.0000	103.4600
0.4330	0.0000	103.4600
0.4340	0.0000	103.4600
0.4350	0.0000	103.4600
0.4360	0.0000	103.4600
0.4370	0.0000	103.4600
0.4380	0.0000	103.4600
0.4390	0.0000	103.4600
0.4400	0.0000	103.4600
0.4410	0.0000	103.4600
0.4420	0.0000	103.4600
0.4430	0.0000	103.4600
0.4440	0.0000	103.4600
0.4450	0.0000	103.4600
0.4460	0.0000	103.4600
0.4470	0.0000	103.4600
0.4480	0.0000	103.4600
0.4490	0.0000	103.4600
0.4500	0.0000	103.4600
0.4510	0.0000	103.4600
0.4520	0.0000	103.4600
0.4530	0.0000	103.4600
0.4540	0.0000	103.4600
0.4550	0.0000	103.4600
0.4560	0.0000	103.4600
0.4570	0.0000	103.4600
0.4580	0.0000	103.4600
0.4590	0.0000	103.4600
0.4600	0.0000	103.4600
0.4610	0.0000	103.4600
0.4620	0.0000	103.4600
0.4630	0.0000	103.4600
0.4640	0.0000	103.4600
0.4650	0.0000	103.4600
0.4660	0.0000	103.4600
0.4670	0.0000	103.4600
0.4680	0.0000	103.4600
0.4690	0.0000	103.4600
0.4700	0.0000	103.4600
0.4710	0.0000	103.4600
0.4720	0.0000	103.4600
0.4730	0.0000	103.4600
0.4740	0.0000	103.4600
0.4750	0.0000	103.4600
0.4760	0.0000	103.4600
0.4770	0.0000	103.4600
